<svg width="413" height="263" viewBox="0 0 413 263" fill="none" xmlns="http://www.w3.org/2000/svg">
<rect width="413" height="263" fill="#024B11"/>
<path d="M100.529 201H86.1293H84.0293C80.5793 201 79.8793 200.9 78.7793 200.45C77.2793 199.8 76.6293 198.65 76.6293 196.35V194.95V192.9V185.2V183.15V181.75C76.6293 180 77.0293 178.95 77.8793 178.2C78.4793 177.7 79.3293 177.35 80.3293 177.2C81.1793 177.1 81.7793 177.1 84.0293 177.1H86.1293H100.529V182.75H87.3793C86.3793 182.75 85.8293 182.8 84.9793 182.8C83.9793 182.85 83.6793 182.85 83.3293 182.95C82.7293 183.15 82.5793 183.55 82.5793 185.25V186.05V187.65V190.45V192.05V192.85C82.5793 194.55 82.7293 194.95 83.3293 195.15C83.6793 195.25 83.9793 195.25 84.9793 195.3C85.7293 195.3 86.3793 195.35 87.3793 195.35H100.529V201ZM127.778 201H113.328H111.228C107.828 201 107.078 200.9 106.028 200.45C104.528 199.8 103.878 198.55 103.878 196.35V194.95L103.828 194.3V192.7L103.878 192.2V190.85C103.878 189.1 104.228 188.05 105.128 187.3C105.728 186.75 106.578 186.45 107.528 186.3C108.478 186.2 108.778 186.2 111.228 186.2H113.328H121.778V185.25C121.778 183.55 121.628 183.15 121.028 182.95C120.678 182.85 120.378 182.85 119.378 182.8C118.528 182.8 118.028 182.75 116.978 182.75H103.828V177.1H118.278H120.378C123.778 177.1 124.478 177.2 125.578 177.65C127.078 178.3 127.728 179.45 127.728 181.75V183.15L127.778 185.2V201ZM121.778 195.35V191.85H114.628H112.228C111.228 191.85 110.878 191.95 110.578 192.05C110.078 192.2 109.828 192.7 109.828 193.3V193.9C109.828 194.5 110.128 195 110.578 195.15C110.878 195.25 111.228 195.25 112.228 195.3C112.978 195.3 113.578 195.35 114.628 195.35H121.778ZM144.249 182.75H138.249V201H132.299V177.1H144.249V182.75ZM171.379 202.35L171.329 204.4V205.8C171.329 207.55 170.979 208.55 170.079 209.35C169.479 209.85 168.629 210.2 167.679 210.3C166.779 210.4 166.179 210.45 163.979 210.45H161.879H147.479V204.75H160.579H162.979C163.979 204.75 164.279 204.7 164.629 204.55C165.229 204.4 165.379 203.95 165.379 202.3V201.5V201H156.979H154.879C151.429 201 150.729 200.9 149.629 200.45C148.129 199.8 147.479 198.65 147.479 196.35V194.95V192.9V185.2V183.15V181.75C147.479 180 147.879 178.95 148.729 178.2C149.329 177.7 150.179 177.35 151.179 177.2C152.029 177.1 152.629 177.1 154.879 177.1H156.979H171.379V202.35ZM165.379 195.35V182.75H158.229C157.229 182.75 156.679 182.8 155.829 182.8C154.829 182.85 154.529 182.85 154.179 182.95C153.579 183.15 153.429 183.55 153.429 185.25V186.05V187.65V190.45V192.05V192.85C153.429 194.55 153.579 194.95 154.179 195.15C154.529 195.25 154.829 195.25 155.829 195.3C156.579 195.3 157.229 195.35 158.229 195.35H165.379ZM199.699 192.9L199.649 194.95V196.35C199.649 198.1 199.299 199.15 198.399 199.9C197.799 200.4 196.949 200.75 195.999 200.9C195.099 201 194.499 201 192.299 201H190.199H185.299H183.199C179.749 201 179.049 200.9 177.949 200.45C176.449 199.8 175.799 198.65 175.799 196.35V194.95V192.9V185.2V183.15V181.75C175.799 180 176.199 178.95 177.049 178.2C177.649 177.7 178.499 177.35 179.499 177.2C180.349 177.1 180.949 177.1 183.199 177.1H185.299H190.199H192.299C195.699 177.1 196.399 177.2 197.499 177.65C198.999 178.3 199.649 179.45 199.649 181.75V183.15L199.699 185.2V192.9ZM193.699 192.85V192.05V190.45V187.65V186.05V185.25C193.699 183.55 193.549 183.15 192.949 182.95C192.599 182.85 192.299 182.85 191.299 182.8C190.499 182.8 189.949 182.75 188.899 182.75H186.549C185.549 182.75 184.999 182.8 184.149 182.8C183.149 182.85 182.849 182.85 182.499 182.95C181.899 183.15 181.749 183.55 181.749 185.25V186.05V187.65V190.45V192.05V192.85C181.749 194.55 181.899 194.95 182.499 195.15C182.849 195.25 183.149 195.25 184.149 195.3C184.899 195.3 185.549 195.35 186.549 195.35H188.899C189.949 195.35 190.549 195.3 191.299 195.3C192.299 195.25 192.599 195.25 192.949 195.15C193.549 194.95 193.699 194.55 193.699 192.85ZM238.421 196.35C238.421 196.85 238.371 197.3 238.321 197.7C238.171 198.65 237.771 199.35 237.171 199.9C236.521 200.45 235.671 200.8 234.721 200.9C233.871 201 233.221 201 231.021 201H214.471V195.35H227.671H229.071C230.371 195.35 230.521 195.3 231.021 195.3C231.521 195.25 231.871 195.1 232.071 194.9C232.321 194.65 232.421 194.25 232.421 193.6C232.421 192.2 231.971 191.9 230.071 191.9H229.071H227.671H221.871C219.621 191.9 219.071 191.85 218.171 191.75C217.171 191.65 216.321 191.3 215.721 190.8C215.071 190.25 214.721 189.5 214.571 188.6C214.471 187.95 214.471 187.25 214.471 185.85V183.15V182.35C214.471 181.55 214.521 180.9 214.571 180.4C214.671 179.55 215.071 178.75 215.721 178.2C216.321 177.7 217.171 177.35 218.171 177.2C219.021 177.1 219.621 177.1 221.871 177.1H238.371V182.75H225.221C223.471 182.75 222.521 182.8 221.871 182.8C220.821 182.9 220.471 183.3 220.471 184.45C220.471 185.1 220.571 185.55 220.821 185.8C221.121 186.1 221.421 186.2 222.821 186.2H223.771H225.221H231.021C233.221 186.2 233.821 186.25 234.721 186.35C235.721 186.45 236.521 186.8 237.171 187.3C237.771 187.9 238.171 188.6 238.321 189.5C238.371 190.15 238.421 190.85 238.421 192.25V194.95V196.35ZM266.545 201H252.145H250.045C246.595 201 245.895 200.9 244.795 200.45C243.295 199.8 242.645 198.65 242.645 196.35V194.95V192.9V185.2V183.15V181.75C242.645 180 243.045 178.95 243.895 178.2C244.495 177.7 245.345 177.35 246.345 177.2C247.195 177.1 247.795 177.1 250.045 177.1H252.145H266.545V182.75H253.395C252.395 182.75 251.845 182.8 250.995 182.8C249.995 182.85 249.695 182.85 249.345 182.95C248.745 183.15 248.595 183.55 248.595 185.25V186.05V187.65V190.45V192.05V192.85C248.595 194.55 248.745 194.95 249.345 195.15C249.695 195.25 249.995 195.25 250.995 195.3C251.745 195.3 252.395 195.35 253.395 195.35H266.545V201ZM293.693 192.9L293.643 194.95V196.35C293.643 198.1 293.293 199.15 292.393 199.9C291.793 200.4 290.943 200.75 289.993 200.9C289.093 201 288.493 201 286.293 201H284.193H279.293H277.193C273.743 201 273.043 200.9 271.943 200.45C270.443 199.8 269.793 198.65 269.793 196.35V194.95V192.9V185.2V183.15V181.75C269.793 180 270.193 178.95 271.043 178.2C271.643 177.7 272.493 177.35 273.493 177.2C274.343 177.1 274.943 177.1 277.193 177.1H279.293H284.193H286.293C289.693 177.1 290.393 177.2 291.493 177.65C292.993 178.3 293.643 179.45 293.643 181.75V183.15L293.693 185.2V192.9ZM287.693 192.85V192.05V190.45V187.65V186.05V185.25C287.693 183.55 287.543 183.15 286.943 182.95C286.593 182.85 286.293 182.85 285.293 182.8C284.493 182.8 283.943 182.75 282.893 182.75H280.543C279.543 182.75 278.993 182.8 278.143 182.8C277.143 182.85 276.843 182.85 276.493 182.95C275.893 183.15 275.743 183.55 275.743 185.25V186.05V187.65V190.45V192.05V192.85C275.743 194.55 275.893 194.95 276.493 195.15C276.843 195.25 277.143 195.25 278.143 195.3C278.893 195.3 279.543 195.35 280.543 195.35H282.893C283.943 195.35 284.543 195.3 285.293 195.3C286.293 195.25 286.593 195.25 286.943 195.15C287.543 194.95 287.693 194.55 287.693 192.85ZM321.771 201H307.371H305.271C301.871 201 301.121 200.9 300.071 200.45C298.571 199.8 297.921 198.65 297.921 196.35V194.95L297.871 192.9V177.1H303.871V190.45V192.05V192.85C303.871 194.55 304.021 194.95 304.621 195.15C304.921 195.25 305.271 195.25 306.271 195.3C307.021 195.3 307.621 195.35 308.671 195.35H315.821V177.1H321.771V201ZM338.489 182.75H332.439V201H326.489V173.35H332.439V177.1H338.489V182.75Z" fill="white"/>
<circle cx="249.5" cy="127.5" r="6" fill="white" stroke="white"/>
<circle cx="222.5" cy="141.5" r="6" fill="white" stroke="white"/>
<circle cx="209.5" cy="52.5" r="6" fill="white" stroke="white"/>
<circle cx="254.5" cy="42.5" r="6" fill="white" stroke="white"/>
<circle cx="254.5" cy="70.5" r="6" fill="white" stroke="white"/>
<path d="M282.5 99.5C285.814 99.5 288.5 102.186 288.5 105.5C288.5 108.814 285.814 111.5 282.5 111.5C279.186 111.5 276.5 108.814 276.5 105.5C276.5 102.186 279.186 99.5 282.5 99.5Z" fill="white" stroke="white"/>
<line x1="240.407" y1="101.479" x2="250.407" y2="128.479" stroke="white" stroke-width="3"/>
<line x1="283.636" y1="105.455" x2="243.636" y2="95.4552" stroke="white" stroke-width="3"/>
<line x1="222.31" y1="141.668" x2="249.31" y2="127.668" stroke="white" stroke-width="3"/>
<line x1="210.518" y1="53.5922" x2="255.63" y2="70.1845" stroke="white" stroke-width="3"/>
<rect x="132.5" y="71.5" width="60" height="44" rx="3.5" fill="white" stroke="white" stroke-width="3"/>
<circle cx="193.5" cy="116.5" r="8" fill="#024B11" stroke="white" stroke-width="3"/>
<circle cx="149.5" cy="116.5" r="8" fill="#024B11" stroke="white" stroke-width="3"/>
<path d="M212 99.954C208 87.454 209.5 88.0036 193 88.0036" stroke="white" stroke-width="3"/>
<path d="M200.5 115.454C212.285 115.218 216 112.454 212 99.954" stroke="white" stroke-width="3"/>
<line x1="254.5" y1="47" x2="254.5" y2="70" stroke="white" stroke-width="3"/>
<line x1="241" y1="102.5" x2="213" y2="102.5" stroke="white" stroke-width="3"/>
<line x1="256.342" y1="68.6708" x2="239.342" y2="102.671" stroke="white" stroke-width="3"/>
<path d="M206.294 99.4546C206.399 99.7777 206.158 100.109 205.818 100.109L198 100.108C197.724 100.108 197.5 99.8846 197.5 99.6084L197.5 95.0039C197.501 94.7281 197.725 94.5041 198 94.504L204.321 94.5004C204.537 94.5004 204.729 94.6402 204.796 94.8462L206.294 99.4546Z" fill="white" stroke="white"/>
</svg>
