<svg width="322" height="192" viewBox="0 0 322 192" fill="none" xmlns="http://www.w3.org/2000/svg">
<path d="M54.5293 165H40.1293H38.0293C34.5793 165 33.8793 164.9 32.7793 164.45C31.2793 163.8 30.6293 162.65 30.6293 160.35V158.95V156.9V149.2V147.15V145.75C30.6293 144 31.0293 142.95 31.8793 142.2C32.4793 141.7 33.3293 141.35 34.3293 141.2C35.1793 141.1 35.7793 141.1 38.0293 141.1H40.1293H54.5293V146.75H41.3793C40.3793 146.75 39.8293 146.8 38.9793 146.8C37.9793 146.85 37.6793 146.85 37.3293 146.95C36.7293 147.15 36.5793 147.55 36.5793 149.25V150.05V151.65V154.45V156.05V156.85C36.5793 158.55 36.7293 158.95 37.3293 159.15C37.6793 159.25 37.9793 159.25 38.9793 159.3C39.7293 159.3 40.3793 159.35 41.3793 159.35H54.5293V165ZM81.7777 165H67.3277H65.2277C61.8277 165 61.0777 164.9 60.0277 164.45C58.5277 163.8 57.8777 162.55 57.8777 160.35V158.95L57.8277 158.3V156.7L57.8777 156.2V154.85C57.8777 153.1 58.2277 152.05 59.1277 151.3C59.7277 150.75 60.5777 150.45 61.5277 150.3C62.4777 150.2 62.7777 150.2 65.2277 150.2H67.3277H75.7777V149.25C75.7777 147.55 75.6277 147.15 75.0277 146.95C74.6777 146.85 74.3777 146.85 73.3777 146.8C72.5277 146.8 72.0277 146.75 70.9777 146.75H57.8277V141.1H72.2777H74.3777C77.7777 141.1 78.4777 141.2 79.5777 141.65C81.0777 142.3 81.7277 143.45 81.7277 145.75V147.15L81.7777 149.2V165ZM75.7777 159.35V155.85H68.6277H66.2277C65.2277 155.85 64.8777 155.95 64.5777 156.05C64.0777 156.2 63.8277 156.7 63.8277 157.3V157.9C63.8277 158.5 64.1277 159 64.5777 159.15C64.8777 159.25 65.2277 159.25 66.2277 159.3C66.9777 159.3 67.5777 159.35 68.6277 159.35H75.7777ZM98.2492 146.75H92.2492V165H86.2992V141.1H98.2492V146.75ZM125.379 166.35L125.329 168.4V169.8C125.329 171.55 124.979 172.55 124.079 173.35C123.479 173.85 122.629 174.2 121.679 174.3C120.779 174.4 120.179 174.45 117.979 174.45H115.879H101.479V168.75H114.579H116.979C117.979 168.75 118.279 168.7 118.629 168.55C119.229 168.4 119.379 167.95 119.379 166.3V165.5V165H110.979H108.879C105.429 165 104.729 164.9 103.629 164.45C102.129 163.8 101.479 162.65 101.479 160.35V158.95V156.9V149.2V147.15V145.75C101.479 144 101.879 142.95 102.729 142.2C103.329 141.7 104.179 141.35 105.179 141.2C106.029 141.1 106.629 141.1 108.879 141.1H110.979H125.379V166.35ZM119.379 159.35V146.75H112.229C111.229 146.75 110.679 146.8 109.829 146.8C108.829 146.85 108.529 146.85 108.179 146.95C107.579 147.15 107.429 147.55 107.429 149.25V150.05V151.65V154.45V156.05V156.85C107.429 158.55 107.579 158.95 108.179 159.15C108.529 159.25 108.829 159.25 109.829 159.3C110.579 159.3 111.229 159.35 112.229 159.35H119.379ZM153.699 156.9L153.649 158.95V160.35C153.649 162.1 153.299 163.15 152.399 163.9C151.799 164.4 150.949 164.75 149.999 164.9C149.099 165 148.499 165 146.299 165H144.199H139.299H137.199C133.749 165 133.049 164.9 131.949 164.45C130.449 163.8 129.799 162.65 129.799 160.35V158.95V156.9V149.2V147.15V145.75C129.799 144 130.199 142.95 131.049 142.2C131.649 141.7 132.499 141.35 133.499 141.2C134.349 141.1 134.949 141.1 137.199 141.1H139.299H144.199H146.299C149.699 141.1 150.399 141.2 151.499 141.65C152.999 142.3 153.649 143.45 153.649 145.75V147.15L153.699 149.2V156.9ZM147.699 156.85V156.05V154.45V151.65V150.05V149.25C147.699 147.55 147.549 147.15 146.949 146.95C146.599 146.85 146.299 146.85 145.299 146.8C144.499 146.8 143.949 146.75 142.899 146.75H140.549C139.549 146.75 138.999 146.8 138.149 146.8C137.149 146.85 136.849 146.85 136.499 146.95C135.899 147.15 135.749 147.55 135.749 149.25V150.05V151.65V154.45V156.05V156.85C135.749 158.55 135.899 158.95 136.499 159.15C136.849 159.25 137.149 159.25 138.149 159.3C138.899 159.3 139.549 159.35 140.549 159.35H142.899C143.949 159.35 144.549 159.3 145.299 159.3C146.299 159.25 146.599 159.25 146.949 159.15C147.549 158.95 147.699 158.55 147.699 156.85ZM192.421 160.35C192.421 160.85 192.371 161.3 192.321 161.7C192.171 162.65 191.771 163.35 191.171 163.9C190.521 164.45 189.671 164.8 188.721 164.9C187.871 165 187.221 165 185.021 165H168.471V159.35H181.671H183.071C184.371 159.35 184.521 159.3 185.021 159.3C185.521 159.25 185.871 159.1 186.071 158.9C186.321 158.65 186.421 158.25 186.421 157.6C186.421 156.2 185.971 155.9 184.071 155.9H183.071H181.671H175.871C173.621 155.9 173.071 155.85 172.171 155.75C171.171 155.65 170.321 155.3 169.721 154.8C169.071 154.25 168.721 153.5 168.571 152.6C168.471 151.95 168.471 151.25 168.471 149.85V147.15V146.35C168.471 145.55 168.521 144.9 168.571 144.4C168.671 143.55 169.071 142.75 169.721 142.2C170.321 141.7 171.171 141.35 172.171 141.2C173.021 141.1 173.621 141.1 175.871 141.1H192.371V146.75H179.221C177.471 146.75 176.521 146.8 175.871 146.8C174.821 146.9 174.471 147.3 174.471 148.45C174.471 149.1 174.571 149.55 174.821 149.8C175.121 150.1 175.421 150.2 176.821 150.2H177.771H179.221H185.021C187.221 150.2 187.821 150.25 188.721 150.35C189.721 150.45 190.521 150.8 191.171 151.3C191.771 151.9 192.171 152.6 192.321 153.5C192.371 154.15 192.421 154.85 192.421 156.25V158.95V160.35ZM220.545 165H206.145H204.045C200.595 165 199.895 164.9 198.795 164.45C197.295 163.8 196.645 162.65 196.645 160.35V158.95V156.9V149.2V147.15V145.75C196.645 144 197.045 142.95 197.895 142.2C198.495 141.7 199.345 141.35 200.345 141.2C201.195 141.1 201.795 141.1 204.045 141.1H206.145H220.545V146.75H207.395C206.395 146.75 205.845 146.8 204.995 146.8C203.995 146.85 203.695 146.85 203.345 146.95C202.745 147.15 202.595 147.55 202.595 149.25V150.05V151.65V154.45V156.05V156.85C202.595 158.55 202.745 158.95 203.345 159.15C203.695 159.25 203.995 159.25 204.995 159.3C205.745 159.3 206.395 159.35 207.395 159.35H220.545V165ZM247.693 156.9L247.643 158.95V160.35C247.643 162.1 247.293 163.15 246.393 163.9C245.793 164.4 244.943 164.75 243.993 164.9C243.093 165 242.493 165 240.293 165H238.193H233.293H231.193C227.743 165 227.043 164.9 225.943 164.45C224.443 163.8 223.793 162.65 223.793 160.35V158.95V156.9V149.2V147.15V145.75C223.793 144 224.193 142.95 225.043 142.2C225.643 141.7 226.493 141.35 227.493 141.2C228.343 141.1 228.943 141.1 231.193 141.1H233.293H238.193H240.293C243.693 141.1 244.393 141.2 245.493 141.65C246.993 142.3 247.643 143.45 247.643 145.75V147.15L247.693 149.2V156.9ZM241.693 156.85V156.05V154.45V151.65V150.05V149.25C241.693 147.55 241.543 147.15 240.943 146.95C240.593 146.85 240.293 146.85 239.293 146.8C238.493 146.8 237.943 146.75 236.893 146.75H234.543C233.543 146.75 232.993 146.8 232.143 146.8C231.143 146.85 230.843 146.85 230.493 146.95C229.893 147.15 229.743 147.55 229.743 149.25V150.05V151.65V154.45V156.05V156.85C229.743 158.55 229.893 158.95 230.493 159.15C230.843 159.25 231.143 159.25 232.143 159.3C232.893 159.3 233.543 159.35 234.543 159.35H236.893C237.943 159.35 238.543 159.3 239.293 159.3C240.293 159.25 240.593 159.25 240.943 159.15C241.543 158.95 241.693 158.55 241.693 156.85ZM275.771 165H261.371H259.271C255.871 165 255.121 164.9 254.071 164.45C252.571 163.8 251.921 162.65 251.921 160.35V158.95L251.871 156.9V141.1H257.871V154.45V156.05V156.85C257.871 158.55 258.021 158.95 258.621 159.15C258.921 159.25 259.271 159.25 260.271 159.3C261.021 159.3 261.621 159.35 262.671 159.35H269.821V141.1H275.771V165ZM292.489 146.75H286.439V165H280.489V137.35H286.439V141.1H292.489V146.75Z" fill="black"/>
<circle cx="203.5" cy="91.5" r="6" fill="#024B11" stroke="#024B11"/>
<circle cx="176.5" cy="105.5" r="6" fill="#024B11" stroke="#024B11"/>
<circle cx="163.5" cy="16.5" r="6" fill="#024B11" stroke="#024B11"/>
<circle cx="208.5" cy="6.5" r="6" fill="#024B11" stroke="#024B11"/>
<circle cx="208.5" cy="34.5" r="6" fill="#024B11" stroke="#024B11"/>
<path d="M236.5 63.5C239.814 63.5 242.5 66.1863 242.5 69.5C242.5 72.8137 239.814 75.5 236.5 75.5C233.186 75.5 230.5 72.8137 230.5 69.5C230.5 66.1863 233.186 63.5 236.5 63.5Z" fill="#024B11" stroke="#024B11"/>
<line x1="194.407" y1="65.479" x2="204.407" y2="92.479" stroke="#024B11" stroke-width="3"/>
<line x1="237.636" y1="69.4552" x2="197.636" y2="59.4552" stroke="#024B11" stroke-width="3"/>
<line x1="176.31" y1="105.668" x2="203.31" y2="91.6684" stroke="#024B11" stroke-width="3"/>
<line x1="164.518" y1="17.5922" x2="209.63" y2="34.1845" stroke="#024B11" stroke-width="3"/>
<path d="M95.5 73.5V79.5H90C88.067 79.5 86.5 77.933 86.5 76V73.5H95.5Z" fill="#024B11" stroke="#024B11" stroke-width="3"/>
<rect x="111.5" y="72.5" width="28" height="7" fill="#024B11" stroke="#024B11" stroke-width="3"/>
<path d="M90 35.5H143C144.933 35.5 146.5 37.067 146.5 39V72.5H86.5V39C86.5 37.067 88.067 35.5 90 35.5Z" fill="#024B11" stroke="#024B11" stroke-width="3"/>
<circle cx="147.5" cy="80.5" r="8" stroke="#024B11" stroke-width="3"/>
<circle cx="103.5" cy="80.5" r="8" stroke="#024B11" stroke-width="3"/>
<path d="M166 63.954C162 51.454 163.5 52.0036 147 52.0036" stroke="#024B11" stroke-width="3"/>
<path d="M154.5 79.454C166.285 79.2184 170 76.454 166 63.954" stroke="#024B11" stroke-width="3"/>
<line x1="208.5" y1="11" x2="208.5" y2="34" stroke="#024B11" stroke-width="3"/>
<line x1="195" y1="66.5" x2="167" y2="66.5" stroke="#024B11" stroke-width="3"/>
<line x1="210.342" y1="32.6708" x2="193.342" y2="66.6708" stroke="#024B11" stroke-width="3"/>
<path d="M160.294 63.4547C160.399 63.7777 160.158 64.1089 159.819 64.1089L152 64.1085C151.724 64.1085 151.5 63.8846 151.5 63.6084L151.5 59.0039C151.501 58.7281 151.725 58.5041 152 58.504L158.321 58.5004C158.537 58.5004 158.729 58.6402 158.796 58.8462L160.294 63.4547Z" fill="#024B11" stroke="#024B11"/>
</svg>
